<svg xmlns="http://www.w3.org/2000/svg" viewBox="0 0 441.86 183.93"><defs><style>.cls-1{font-size:98.61px;fill:#1d1d1b;font-family:MyriadPro-Regular, Myriad Pro;}.cls-2{letter-spacing:0em;}.cls-3{letter-spacing:0em;}.cls-4{fill:none;stroke:#1d1d1b;stroke-miterlimit:10;stroke-width:7px;}</style></defs><g id="Lager_1" data-name="Lager 1"><text class="cls-1" transform="translate(25.81 82.54) scale(0.91 1)"><tspan class="cls-2">B</tspan><tspan x="53.84" y="0">ook</tspan><tspan class="cls-3" x="208.37" y="0">B</tspan><tspan x="262.21" y="0">ook</tspan></text></g><g id="Lager_3" data-name="Lager 3"><path class="cls-4" d="M492.63,431.59s-42.5-38.2-39.54-46.69c-28.93,3.18-68.4-.8-115.75-4.25-9.87-2.39-37.82,3.45-41.11,11.15-9.87-8.76-22.69-15.4-40.12-14.61-7.89-3.45-118.39,12.75-118.39,12.75s-26,32.13-43.08,42c25.85,4.51,143.05-4.78,156.21-5s35.18,1.33,42.75,13.81c2.3-11.68,41.76-12.21,41.76-12.21l158.51,4L511,456.06l.33.4c-64.12-6.5-194.68-1.72-194.68-1.72v3.45H272.55v-3.45s-179-3.14-191.4-.51c-1.22-11.48,12-21.58,12-21.58" transform="translate(-77.57 -277.76)"/><line class="cls-4" x1="218.62" y1="113.81" x2="215.74" y2="161.99"/><polygon class="cls-4" points="202.46 176.07 233.09 176.07 216.28 164.74 202.46 176.07"/></g></svg>