<svg id="Lager_1" data-name="Lager 1" xmlns="http://www.w3.org/2000/svg" viewBox="0 0 24 24"><defs><style>.cls-1{fill:none;}</style></defs><path class="cls-1" d="M0,0H24V24H0Z"/><path d="M18.25,1.67,5,1A2.21,2.21,0,0,0,2.84,3.2V20.8A2.21,2.21,0,0,0,5,23l13.21-.67a2.21,2.21,0,0,0,2.2-2.2V3.87A2.21,2.21,0,0,0,18.25,1.67ZM7.8,20.8V3.2l10.45.67V20.14L5,20.8V3.2h1.1V20.8"/><rect class="cls-1" x="6.44" y="5.47" width="13.06" height="13.06"/><path d="M16.24,8.74H15.15a2.18,2.18,0,1,0-4.35,0H9.71A1.09,1.09,0,0,0,8.62,9.82v6.53a1.09,1.09,0,0,0,1.09,1.09h6.53a1.08,1.08,0,0,0,1.08-1.09V9.82A1.08,1.08,0,0,0,16.24,8.74ZM13,7.65a1.09,1.09,0,0,1,1.09,1.09H11.88A1.09,1.09,0,0,1,13,7.65Zm3.27,8.7H9.71V9.82H10.8v1.09a.54.54,0,1,0,1.08,0V9.82h2.18v1.09a.55.55,0,1,0,1.09,0V9.82h1.09Z"/><path d="M13.08,13.07c-.61-.16-.81-.32-.81-.57s.27-.5.73-.5.65.23.66.56h.59a1.05,1.05,0,0,0-.85-1V11h-.8v.58a1,1,0,0,0-.94,1c0,.62.51.93,1.26,1.1s.8.4.8.65-.13.48-.72.48-.77-.25-.8-.56h-.59a1.12,1.12,0,0,0,1,1v.58h.8v-.58a1,1,0,0,0,.93-.94C14.33,13.49,13.68,13.23,13.08,13.07Z"/></svg>