<svg id="Lager_1" data-name="Lager 1" xmlns="http://www.w3.org/2000/svg" viewBox="0 0 36 36"><defs><style>.cls-1{fill:none;}.cls-2{stroke:#000;stroke-miterlimit:10;}</style></defs><path class="cls-1" d="M0,0H36V36H0Z"/><path d="M21.42,4.9,4.68,4.05A2.79,2.79,0,0,0,1.89,6.84V29.16A2.79,2.79,0,0,0,4.68,32l16.74-.84a2.8,2.8,0,0,0,2.79-2.79V7.69A2.8,2.8,0,0,0,21.42,4.9ZM8.17,29.16V6.84l13.25.85V28.32l-16.74.84V6.84H6.07V29.16"/><path d="M35.2,11.83,30.52,7.15a1.06,1.06,0,0,0-.75-.31H26A1.06,1.06,0,0,0,24.91,7.9v3.8a1.06,1.06,0,0,0,.31.75l4.68,4.68a1.05,1.05,0,0,0,1.5,0l3.8-3.8A1.05,1.05,0,0,0,35.2,11.83Zm-4.55,4.55L26,11.7V7.9h3.8l4.68,4.68Z"/><circle cx="27.29" cy="9.23" r="0.8"/><line class="cls-2" x1="22.73" y1="7.13" x2="27.29" y2="9.23"/></svg>